<svg xmlns="http://www.w3.org/2000/svg" xmlns:xlink="http://www.w3.org/1999/xlink" width="24" height="24" viewBox="0 0 24 24"><defs><linearGradient id="linear-gradient" x1=".5" x2=".5" y2="1" gradientUnits="objectBoundingBox"><stop offset="0" stop-color="#fff"/><stop offset="1" stop-color="gray"/></linearGradient></defs><g id="Category" transform="translate(-2 -2)"><path id="Path_20" fill="#f6f6f6" fill-rule="evenodd" d="M16.775,2H20.7a2.951,2.951,0,0,1,2.937,2.964V8.917A2.952,2.952,0,0,1,20.7,11.881h-3.92a2.952,2.952,0,0,1-2.939-2.964V4.964A2.951,2.951,0,0,1,16.775,2Z" data-name="Path 20" opacity=".4" transform="translate(2.367)"/><path id="Path_21" fill="url(#linear-gradient)" fill-rule="evenodd" d="M4.939,2H8.857A2.951,2.951,0,0,1,11.8,4.964V8.917a2.952,2.952,0,0,1-2.939,2.964H4.939A2.952,2.952,0,0,1,2,8.917V4.964A2.951,2.951,0,0,1,4.939,2Z" data-name="Path 21"/><path id="Path_22" fill="url(#linear-gradient)" fill-rule="evenodd" d="M4.939,13.766H8.857A2.952,2.952,0,0,1,11.8,16.731v3.951a2.951,2.951,0,0,1-2.939,2.964H4.939A2.951,2.951,0,0,1,2,20.683V16.731A2.952,2.952,0,0,1,4.939,13.766Z" data-name="Path 22" transform="translate(0 2.353)"/><path id="Path_23" fill="url(#linear-gradient)" fill-rule="evenodd" d="M16.775,13.766H20.7a2.952,2.952,0,0,1,2.937,2.966v3.951A2.951,2.951,0,0,1,20.7,23.647h-3.92a2.951,2.951,0,0,1-2.939-2.964V16.731A2.952,2.952,0,0,1,16.775,13.766Z" data-name="Path 23" transform="translate(2.367 2.353)"/></g></svg>